<?xml version="1.0" standalone="no"?>
<!DOCTYPE svg PUBLIC "-//W3C//DTD SVG 20010904//EN"
 "http://www.w3.org/TR/2001/REC-SVG-20010904/DTD/svg10.dtd">
<svg version="1.0" xmlns="http://www.w3.org/2000/svg"
 width="1024.000000pt" height="1024.000000pt" viewBox="0 0 1024.000000 1024.000000"
 preserveAspectRatio="xMidYMid meet">
<metadata>
Created by potrace 1.11, written by Peter Selinger 2001-2013
</metadata>
<g transform="translate(0.000000,1024.000000) scale(0.100000,-0.100000)"
fill="#000000" stroke="none">
<path d="M0 5120 l0 -5120 5120 0 5120 0 0 5120 0 5120 -5120 0 -5120 0 0
-5120z m5658 4321 c807 -107 1525 -407 2152 -900 927 -728 1515 -1795 1642
-2981 20 -190 17 -736 -5 -920 -64 -534 -193 -971 -427 -1445 -489 -994 -1337
-1762 -2380 -2153 -969 -364 -2071 -364 -3040 0 -1051 395 -1908 1175 -2395
2180 -221 458 -349 898 -412 1418 -22 184 -25 730 -5 920 90 832 401 1602 911
2250 657 835 1600 1404 2641 1594 114 20 284 42 465 60 22 2 189 2 370 1 261
-3 362 -8 483 -24z"/>
<path d="M5007 8354 c-10 -3 -606 -271 -1325 -595 -983 -443 -1314 -597 -1339
-621 -72 -69 -98 -191 -61 -279 22 -50 74 -106 122 -132 l41 -22 2600 -3
c1859 -2 2611 0 2640 8 66 18 129 72 160 135 24 49 27 64 23 125 -6 79 -38
144 -91 183 -17 13 -619 289 -1336 612 -1144 515 -1311 588 -1360 591 -31 1
-64 0 -74 -2z"/>
<path d="M2783 6455 c-38 -16 -73 -68 -73 -108 0 -43 29 -96 61 -112 15 -8 51
-15 79 -15 l50 0 0 -1154 0 -1154 -67 -4 c-77 -4 -125 -24 -172 -70 -104 -101
-104 -256 -2 -358 86 -86 -23 -80 1486 -80 l1331 0 11 83 c18 124 57 249 122
382 70 144 147 250 264 365 l87 85 0 953 0 952 383 -2 382 -3 3 -807 2 -806
97 -1 c129 -2 288 -29 385 -66 17 -7 18 39 20 836 l3 844 61 5 c65 5 87 17
110 61 34 68 6 146 -62 175 -50 21 -4513 20 -4561 -1z m1392 -1390 l0 -1150
-382 -3 -383 -2 0 1155 0 1155 383 -2 382 -3 0 -1150z m1273 -2 l2 -1153 -385
0 -385 0 0 1148 c0 632 3 1152 7 1155 4 4 176 6 382 5 l376 -3 3 -1152z"/>
<path d="M6594 4416 c-242 -46 -439 -149 -610 -320 -407 -407 -455 -1038 -113
-1496 413 -553 1207 -623 1703 -150 137 130 230 272 291 442 48 136 66 241 66
393 0 302 -102 563 -307 783 -137 149 -350 276 -549 328 -123 32 -364 42 -481
20z m919 -556 c58 -47 106 -87 106 -90 1 -3 -174 -220 -388 -482 -214 -263
-410 -507 -436 -543 -26 -36 -49 -65 -52 -65 -3 0 -58 40 -122 88 -64 49 -235
173 -381 277 -146 103 -269 191 -274 196 -4 4 32 64 82 133 l90 126 272 -196
c224 -161 275 -193 285 -182 7 7 153 186 325 398 360 443 359 442 375 432 7
-4 60 -45 118 -92z"/>
<path d="M2455 3239 c-90 -21 -167 -104 -186 -202 -22 -109 39 -223 146 -273
l50 -24 1563 0 1563 0 -12 21 c-42 79 -90 273 -105 422 l-6 67 -1487 -1 c-879
-1 -1502 -5 -1526 -10z"/>
</g>
</svg>
